<svg width="181" height="163" viewBox="0 0 181 163" fill="none" xmlns="http://www.w3.org/2000/svg">
<rect x="51.5" y="15.5" width="109" height="140" rx="18.5" fill="#52A9F5" stroke="black" stroke-width="3"/>
<rect x="57.5" y="20.5" width="98" height="130" rx="18.5" fill="white" stroke="black" stroke-width="3"/>
<path d="M114.5 9C114.5 13.0668 110.996 16.5 106.5 16.5C102.004 16.5 98.5 13.0668 98.5 9C98.5 4.93325 102.004 1.5 106.5 1.5C110.996 1.5 114.5 4.93325 114.5 9Z" fill="#D9D9D9" stroke="black" stroke-width="3"/>
<rect x="84.5" y="14.5" width="44" height="9" fill="#D9D9D9" stroke="black" stroke-width="3"/>
<mask id="path-5-inside-1_12_64" fill="white">
<path d="M97 8H116V14H97V8Z"/>
</mask>
<path d="M97 8H116V14H97V8Z" fill="#D9D9D9"/>
<path d="M116 14V15H119V14H116ZM97 14H94V15H97V14ZM113 8V14H119V8H113ZM116 13H97V15H116V13ZM100 14V8H94V14H100Z" fill="black" mask="url(#path-5-inside-1_12_64)"/>
<rect x="97" y="13" width="19" height="8" fill="#D9D9D9"/>
<circle cx="106.5" cy="10.5" r="4" stroke="black" stroke-width="3"/>
<path d="M98.5 13C98.5 13.5 98 14.5 97 14.5M114.5 12.5C114.562 14.1802 115 14.5 116.5 14.5" stroke="black" stroke-width="3"/>
<rect x="62" y="32" width="88" height="24" rx="10" fill="#22E2FF"/>
<rect x="63" y="60" width="88" height="24" rx="10" fill="#FF2222"/>
<rect x="63" y="88" width="88" height="24" rx="10" fill="#FFA30F"/>
<rect x="63" y="116" width="88" height="24" rx="10" fill="#3CFF22"/>
<rect x="70.5" y="36.5" width="15" height="15" rx="1.5" fill="#FFFEFE" stroke="black"/>
<rect x="70.5" y="63.5" width="15" height="15" rx="1.5" fill="#FFFEFE" stroke="black"/>
<rect x="70.5" y="92.5" width="15" height="15" rx="1.5" fill="#FFFEFE" stroke="black"/>
<rect x="70.5" y="121.5" width="15" height="15" rx="1.5" fill="#FFFEFE" stroke="black"/>
<path d="M68.6962 42.593L77.3745 47.9491L92.0243 35.7884" stroke="black" stroke-width="3"/>
<path d="M68.6962 67.593L77.3745 72.9491L92.0243 60.7884" stroke="black" stroke-width="3"/>
<rect x="104" y="40" width="34" height="3" fill="white"/>
<rect x="106" y="45" width="30" height="3" fill="white"/>
<rect x="104" y="68" width="34" height="3" fill="white"/>
<rect x="106" y="73" width="30" height="3" fill="white"/>
<rect x="105" y="96" width="34" height="3" fill="white"/>
<rect x="107" y="101" width="30" height="3" fill="white"/>
<rect x="105" y="125" width="34" height="3" fill="white"/>
<rect x="107" y="130" width="30" height="3" fill="white"/>
<circle cx="151" cy="55" r="27.5" fill="white" stroke="#FF7300" stroke-width="5"/>
<path d="M136.556 53.8889L151 57.2222" stroke="black" stroke-width="3" stroke-linecap="round"/>
<path d="M161.556 36.1111L152.111 57.8788" stroke="black" stroke-width="3" stroke-linecap="round"/>
<circle cx="151.5" cy="56.5" r="3.5" fill="black"/>
<path d="M84.8903 141.249C88.6133 145.042 46.855 154.697 38.8876 159.311C34.4658 137.267 28.357 124.215 13.7449 107.504C10.9758 104.337 7.90141 101.039 4.47524 97.523C22.815 90.6934 33.944 72.6866 51.437 80.0347C68.9301 87.3828 81.1673 137.455 84.8903 141.249Z" fill="white" stroke="black" stroke-width="3"/>
<path d="M62.6128 91.3251C49.7562 87.3948 41.3755 100.24 18.4907 111.035L4.93586 98.0594C23.4796 84.9835 38.962 76.2081 45.0695 78.046C53.3988 79.3749 57.217 82.3379 62.6128 91.3251Z" fill="#FF3131" stroke="black" stroke-width="3"/>
<path d="M90.7268 136.423C94.4895 140.177 52.835 150.271 44.9166 154.968C40.2634 132.971 34.0177 119.984 19.2308 103.428C16.4286 100.29 13.3197 97.0245 9.85675 93.545C28.1237 86.5231 39.0629 68.4004 56.6322 75.5642C74.2015 82.728 86.9642 132.669 90.7268 136.423Z" fill="white" stroke="black" stroke-width="3"/>
<path d="M67.926 86.7365C55.0288 82.9416 46.7835 95.874 24.0134 106.909L10.323 94.0766C28.7283 80.8066 44.1176 71.8689 50.2441 73.6425C58.5869 74.8838 62.4361 77.8065 67.926 86.7365Z" fill="#FF3131" stroke="black" stroke-width="3"/>
<path d="M97.5 129.5C101.5 133 60.5944 145.795 53 151C46.9188 129.354 39.8376 116.803 24 101.249C20.9987 98.3012 17.683 95.2457 14 92C31.7689 83.799 41.5 64.9999 59.5 71C77.5 77 93.5 126 97.5 129.5Z" fill="white" stroke="black" stroke-width="3"/>
<path d="M71.5 81.4101C58.3823 78.4664 51 91.9101 29 104.41L14.5 92.5C31.9984 78.0552 46.7707 68.1307 53 69.5C61.406 70.1933 65.438 72.8581 71.5 81.4101Z" fill="#FF3131" stroke="black" stroke-width="3"/>
<path d="M49 108L67.5 95L64.5 129" stroke="black" stroke-width="3"/>
<path d="M37.2267 81.2185C37.6707 80.9043 38.0459 80.8805 38.3523 81.1472C38.4447 81.2778 38.417 81.5065 38.2693 81.8332L37.7551 82.0206L37.7028 82.0576C37.2152 82.4027 37.1478 83.4892 37.5006 85.3173C37.6538 85.7185 37.8413 86.0758 38.0631 86.3892L38.442 86.9247L38.4943 86.8878C39.3779 85.8836 39.9677 85.2767 40.2637 85.0672C40.6961 84.8658 40.9955 84.8826 41.1619 85.1177C41.256 85.417 41.216 85.6282 41.0419 85.7514L40.7791 85.8786C39.9464 86.5854 39.3889 87.1825 39.1065 87.6698L39.1712 87.7612L40.8251 89.7662C41.5337 90.7675 41.6877 91.4099 41.2872 91.6933C41.1478 91.7919 40.9446 91.7724 40.6773 91.6348C40.564 91.1792 40.3164 90.6815 39.9344 90.1417C39.5462 89.5931 39.0534 89.0075 38.456 88.3849L37.8846 88.9069C37.2816 89.2551 36.8723 89.2769 36.6567 88.9721C36.5712 88.6667 36.6243 88.4462 36.8159 88.3107L37.2071 88.171L37.4422 88.0047L37.8231 87.6567L37.3056 86.9253C36.3506 85.5757 36.1091 83.9694 36.5811 82.1066C36.7154 81.724 36.9306 81.428 37.2267 81.2185ZM41.3612 79.4101L41.4135 79.3731C42.6026 78.8191 43.4898 78.9557 44.0751 79.7829L44.2415 80.018C44.8884 80.9323 44.9489 82.255 44.4229 83.9861L44.4599 84.0384C47.5447 84.3906 49.4484 84.3109 50.1711 83.7995C50.3695 83.8029 50.518 83.8742 50.6166 84.0136C50.7583 84.2138 50.6996 84.4448 50.4405 84.7065C49.7178 85.2179 47.7521 85.3022 44.5433 84.9594L43.7691 85.0565L43.7299 85.0842C44.6638 85.8869 45.3186 86.5538 45.6945 87.0849C45.8547 87.3113 45.8293 87.571 45.6185 87.8639C45.218 88.1473 44.2723 87.3465 42.7815 85.4613C41.8621 84.7529 41.2114 84.1288 40.8294 83.5889L40.7462 83.4714C40.1855 82.679 40.0793 82.1596 40.4276 81.9132L40.7682 81.8682L40.8465 81.8127C40.6237 80.6114 40.7952 79.8106 41.3612 79.4101ZM42.7709 83.6459L43.0737 84.1569C43.8835 83.5839 44.0621 82.4513 43.6095 80.7592L43.2676 80.276C42.9965 79.8928 42.572 79.8469 41.9941 80.1383L41.9157 80.1937C41.3672 80.5819 41.6523 81.7326 42.7709 83.6459ZM46.6658 75.9504C46.8748 75.8026 47.0867 75.8159 47.3017 75.9904L47.7686 76.8165L47.9442 77.0646C49.4373 78.713 50.5643 80.0193 51.3251 80.9837C52.0801 81.8476 52.5099 82.2426 52.6144 82.1686C52.7438 82.3515 52.6746 82.5769 52.4068 82.8447C51.9714 83.1528 51.1315 82.4274 49.8869 80.6686L47.1182 77.5316L47.035 77.414C46.4928 76.6478 46.3697 76.1599 46.6658 75.9504Z" fill="white"/>
</svg>
